# xmcd
#
# Track frame offsets:
# 150
# 19458
# 39475
# 61752
# 79204
# 101857
# 117622
# 141072
# 163161
# 185626
# 207812
# 229174
# 254414
# 286431
#
# Disc length: 4200 seconds
#
#
# Revision: 0
# Processed by: cddbd v1.5.1PL0 Copyright (c) Steve Scherf et al.
# Submitted via: FreeRIP 2.90 
#
DISCID=d210660e
DTITLE=Victoria - Together Forever
DYEAR=2002
DGENRE=Vocal
TTITLE0=Rght Here Waiting
TTITLE1=Without You
TTITLE2=The Reason
TTITLE3=Together Forever
TTITLE4=Every Night
TTITLE5=Please Don't Make Me Blue
TTITLE6=Take My Heart
TTITLE7=All I Know
TTITLE8=All Loves Needs Love
TTITLE9=The Reason(Spanish Edit)
TTITLE10=Without You(Echotest House Mix)
TTITLE11=Every Night(Echotest Club Anthem Edit)
TTITLE12=Together Forever(Echotest Trippin' On Da Vibe Remix)
TTITLE13=Together Forever(Polarbabies' Take)
EXTD=
EXTT0=
EXTT1=
EXTT2=
EXTT3=
EXTT4=
EXTT5=
EXTT6=
EXTT7=
EXTT8=
EXTT9=
EXTT10=
EXTT11=
EXTT12=
EXTT13=
PLAYORDER=
